HIERARCHY
ROOT joint_Root
{
	OFFSET 0.0 0.0 0.0
	CHANNELS 6 Xposition Yposition Zposition Zrotation Xrotation Yrotation 
	JOINT Hips
	{
		OFFSET 4.5925 91.4895 -427.239
		CHANNELS 6 Xposition Yposition Zposition Zrotation Xrotation Yrotation 
		JOINT Spine
		{
			OFFSET 15.7357 0.0 0.0
			CHANNELS 6 Xposition Yposition Zposition Zrotation Xrotation Yrotation 
			JOINT Chest
			{
				OFFSET 8.98455 -0.406207 0.0
				CHANNELS 6 Xposition Yposition Zposition Zrotation Xrotation Yrotation 
				JOINT Neck
				{
					OFFSET 16.3773 0.0 0.0
					CHANNELS 6 Xposition Yposition Zposition Zrotation Xrotation Yrotation 
					JOINT Head
					{
						OFFSET 6.45672 0.0 0.0
						CHANNELS 6 Xposition Yposition Zposition Zrotation Xrotation Yrotation 
						End Site
						{
							OFFSET 0.0 0.0 0.0
						}
					}
				}
				JOINT Shoulder_L
				{
					OFFSET 12.9942 -0.242716 4.98039
					CHANNELS 6 Xposition Yposition Zposition Zrotation Xrotation Yrotation 
					JOINT UpperArm_L
					{
						OFFSET 5.34809 0.0 0.0
						CHANNELS 6 Xposition Yposition Zposition Zrotation Xrotation Yrotation 
						JOINT LowerArm_L
						{
							OFFSET 24.3286 1.87007e-05 0.0
							CHANNELS 6 Xposition Yposition Zposition Zrotation Xrotation Yrotation 
							JOINT Hand_L
							{
								OFFSET 22.2916 0.0 0.0
								CHANNELS 6 Xposition Yposition Zposition Zrotation Xrotation Yrotation 
								End Site
								{
									OFFSET 0.0 0.0 0.0
								}
							}
						}
					}
				}
				JOINT Shoulder_R
				{
					OFFSET 12.9945 -0.242716 -4.98039
					CHANNELS 6 Xposition Yposition Zposition Zrotation Xrotation Yrotation 
					JOINT UpperArm_R
					{
						OFFSET -5.34813 0.0 0.0
						CHANNELS 6 Xposition Yposition Zposition Zrotation Xrotation Yrotation 
						JOINT LowerArm_R
						{
							OFFSET -24.3289 0.000322201 0.0
							CHANNELS 6 Xposition Yposition Zposition Zrotation Xrotation Yrotation 
							JOINT Hand_R
							{
								OFFSET -22.2915 -0.000108084 0.0
								CHANNELS 6 Xposition Yposition Zposition Zrotation Xrotation Yrotation 
								End Site
								{
									OFFSET 0.0 0.0 0.0
								}
							}
						}
					}
				}
			}
		}
		JOINT UpperLeg_L
		{
			OFFSET -2.19248 -6.46944 0.0
			CHANNELS 6 Xposition Yposition Zposition Zrotation Xrotation Yrotation 
			JOINT LowerLeg_L
			{
				OFFSET 39.0811 0.0 -1.23785e-05
				CHANNELS 6 Xposition Yposition Zposition Zrotation Xrotation Yrotation 
				JOINT Foot_L
				{
					OFFSET 40.9854 0.0 -1.26872e-05
					CHANNELS 6 Xposition Yposition Zposition Zrotation Xrotation Yrotation 
					JOINT Toes_L
					{
						OFFSET 11.7543 0.0 0.0
						CHANNELS 6 Xposition Yposition Zposition Zrotation Xrotation Yrotation 
						End Site
						{
							OFFSET 0.0 0.0 0.0
						}
					}
				}
			}
		}
		JOINT UpperLeg_R
		{
			OFFSET -2.19251 6.46944 0.0
			CHANNELS 6 Xposition Yposition Zposition Zrotation Xrotation Yrotation 
			JOINT LowerLeg_R
			{
				OFFSET -39.0811 -0.00228153 -0.0401928
				CHANNELS 6 Xposition Yposition Zposition Zrotation Xrotation Yrotation 
				JOINT Foot_R
				{
					OFFSET -40.9854 0.0 0.0
					CHANNELS 6 Xposition Yposition Zposition Zrotation Xrotation Yrotation 
					JOINT Toes_R
					{
						OFFSET -11.7543 0.0 0.0
						CHANNELS 6 Xposition Yposition Zposition Zrotation Xrotation Yrotation 
						End Site
						{
							OFFSET 0.0 0.0 0.0
						}
					}
				}
			}
		}
	}
}
MOTION
Frames:	4
Frame Time:	0.0333333
0.000000 0.000000 0.000000 0.000000 0.000000 -0.000000 -3.204060 90.524600 4.678770 90.048300 -2.049980 7.864590 15.735700 0.000005 -0.000001 84.437000 83.205100 -84.554400 8.984550 -0.406207 -0.000000 5.759640 -1.312050 -0.168648 16.377300 -0.000001 -0.000001 0.558239 -3.773070 3.723610 6.456720 -0.000001 -0.000000 -17.401300 -2.752540 4.888460 12.994200 -0.242716 4.980390 -91.661300 6.176650 -74.914200 5.348090 -0.000007 -0.000001 -59.891200 42.923600 -17.301100 24.328600 0.000019 0.000005 7.797650 22.738800 -19.508300 22.291600 -0.000001 0.000005 10.780700 5.252680 1.361790 12.994500 -0.242716 -4.980390 88.500900 11.755200 -82.680200 -5.348130 -0.000001 -0.000004 -62.522300 30.431800 -9.579210 -24.328900 0.000322 -0.000009 1.181590 3.914650 -16.824700 -22.291500 -0.000108 -0.000004 13.343600 5.375380 -2.153770 -2.192480 -6.469440 -0.000000 -173.644000 -9.726050 2.305660 39.081100 -0.000007 -0.000012 -0.194170 0.361038 28.272100 40.985400 -0.000006 -0.000013 -1.824610 6.031510 -72.296600 11.754300 -0.000000 0.000003 -0.000085 -0.000899 -16.612200 -2.192510 6.469440 -0.000001 176.268000 15.947700 -176.939000 -39.081100 -0.002282 -0.040193 -0.012982 0.029608 28.813400 -40.985400 0.000008 0.000006 6.389050 8.769410 -74.716400 -11.754300 -0.000006 -0.000006 -0.004613 -0.057668 -18.919200
0.000000 0.000000 0.000000 0.000000 0.000000 -0.000000 -3.167780 90.528000 4.715180 89.993800 -2.044700 7.786550 15.735700 0.000005 -0.000001 84.704400 83.169500 -84.893000 8.984550 -0.406207 -0.000000 5.835670 -1.254440 -0.312812 16.377300 -0.000001 -0.000001 0.634234 -3.912720 3.646970 6.456720 -0.000001 -0.000000 -17.199100 -2.876870 4.729890 12.994200 -0.242716 4.980390 -91.647700 6.080010 -74.805400 5.348090 -0.000007 -0.000001 -59.797700 41.812100 -16.999400 24.328600 0.000019 0.000005 7.656490 22.988200 -18.994400 22.291600 -0.000001 0.000005 10.939300 5.246550 1.523600 12.994500 -0.242716 -4.980390 88.419300 11.765100 -82.292500 -5.348130 -0.000001 -0.000004 -62.567100 26.856800 -8.876840 -24.328900 0.000322 -0.000009 0.817737 2.633440 -17.281600 -22.291500 -0.000108 -0.000004 13.595500 5.388630 -2.571200 -2.192480 -6.469440 -0.000000 -173.638000 -9.666050 2.253920 39.081100 -0.000007 -0.000012 -0.194994 0.362625 28.268600 40.985400 -0.000006 -0.000013 -1.816820 5.972880 -72.328000 11.754300 -0.000000 0.000003 -0.000084 -0.000882 -16.611500 -2.192510 6.469440 -0.000001 176.319000 16.023000 -176.957000 -39.081100 -0.002282 -0.040193 -0.000110 0.006223 28.751800 -40.985400 0.000008 0.000006 6.513460 8.783280 -74.737100 -11.754300 -0.000006 -0.000006 -0.004348 -0.055009 -18.810900
0.000000 0.000000 0.000000 0.000000 0.000000 -0.000000 -3.136380 90.533400 4.737090 89.954100 -1.981090 7.753680 15.735700 0.000005 -0.000001 84.810200 83.140200 -85.080900 8.984550 -0.406207 -0.000000 5.895600 -1.233370 -0.477286 16.377300 -0.000001 -0.000001 0.858065 -3.998520 3.528160 6.456720 -0.000001 -0.000000 -17.008000 -3.078210 4.564860 12.994200 -0.242716 4.980390 -91.639600 5.980360 -74.638200 5.348090 -0.000007 -0.000001 -59.704400 40.986100 -16.689100 24.328600 0.000019 0.000005 7.492090 22.868300 -18.696300 22.291600 -0.000001 0.000005 11.043600 5.247880 1.488780 12.994500 -0.242716 -4.980390 88.306900 11.889600 -81.835700 -5.348130 -0.000001 -0.000004 -62.575500 21.723900 -8.090330 -24.328900 0.000322 -0.000009 0.202179 0.614707 -18.330800 -22.291500 -0.000108 -0.000004 14.087500 5.399620 -2.924360 -2.192480 -6.469440 -0.000000 -173.638000 -9.618840 2.211160 39.081100 -0.000007 -0.000012 -0.193382 0.359491 28.277600 40.985400 -0.000006 -0.000013 -1.790910 5.968190 -72.336800 11.754300 -0.000000 0.000003 -0.000084 -0.000885 -16.611600 -2.192510 6.469440 -0.000001 176.353000 16.139500 -176.966000 -39.081100 -0.002282 -0.040193 0.013379 -0.018370 28.739800 -40.985400 0.000008 0.000006 6.756630 8.737690 -74.766700 -11.754300 -0.000006 -0.000006 -0.004369 -0.055221 -18.819500
0.000000 0.000000 0.000000 0.000000 0.000000 -0.000000 -3.094510 90.535000 4.746120 89.908100 -1.956820 7.733600 15.735700 0.000005 -0.000001 84.765800 83.114100 -85.107200 8.984550 -0.406207 -0.000000 5.945810 -1.247620 -0.617159 16.377300 -0.000001 -0.000001 1.182300 -4.102020 3.445040 6.456720 -0.000001 -0.000000 -16.762600 -3.169250 4.227980 12.994200 -0.242716 4.980390 -91.627700 5.865770 -74.461100 5.348090 -0.000007 -0.000001 -59.685200 40.387200 -16.354400 24.328600 0.000019 0.000005 7.422400 22.707000 -18.648600 22.291600 -0.000001 0.000005 10.998500 5.248910 1.461190 12.994500 -0.242716 -4.980390 88.184900 11.948100 -81.297200 -5.348130 -0.000001 -0.000004 -62.167800 16.351600 -7.734650 -24.328900 0.000322 -0.000009 -0.513314 -1.417640 -19.850700 -22.291500 -0.000108 -0.000004 14.559300 5.400650 -2.957880 -2.192480 -6.469440 -0.000000 -173.623000 -9.600760 2.183160 39.081100 -0.000007 -0.000012 -0.195045 0.362184 28.303900 40.985400 -0.000006 -0.000013 -1.763760 5.961920 -72.361100 11.754300 -0.000000 0.000003 -0.000077 -0.000827 -16.609400 -2.192510 6.469440 -0.000001 176.352000 16.220800 -177.006000 -39.081100 -0.002282 -0.040193 0.012666 -0.017042 28.781900 -40.985400 0.000008 0.000006 6.690170 8.818350 -74.686600 -11.754300 -0.000006 -0.000006 -0.004293 -0.054457 -18.788400
